<svg width="50" height="58" viewBox="0 0 50 58" fill="none" xmlns="http://www.w3.org/2000/svg">
<g id="Frame" clip-path="url(#clip0_1_212)">
<g id="Group">
<path id="Vector" d="M44.072 18.098V16.1689C44.072 15.4245 43.4663 14.8242 42.7233 14.8242H34.5017C31.675 14.8242 29.131 16.0488 27.3946 17.9939C25.6582 16.0488 23.1223 14.8242 20.2956 14.8242H10.701V43.1758H20.2875C23.1142 43.1758 25.6582 41.9511 27.3865 40.0061C29.1229 41.9511 31.6669 43.1758 34.4936 43.1758H42.5779C43.4017 43.1758 44.064 42.5194 44.064 41.703V35.0033C44.064 34.2989 43.4906 33.7226 42.7718 33.7226H40.6316C39.8966 33.7226 39.299 33.1303 39.299 32.4019V30.3207C39.299 29.5923 39.8966 29 40.6316 29H47.2945C48.1425 29 48.837 29.6884 48.837 30.5288V44.7447C48.837 46.6497 47.666 48.3707 45.8811 49.0751L27.4431 56.3831C25.8763 57.0074 24.1318 57.0074 22.565 56.3831L4.11888 49.0751C2.33403 48.3627 1.16298 46.6497 1.16298 44.7447V39.0215C1.16298 38.8854 1.34873 38.8454 1.40527 38.9655C3.51316 43.1838 5.92796 43.1838 5.92796 43.1838V14.8242C3.14973 15.6806 1.88176 17.8098 1.40527 18.8904C1.34873 19.0185 1.16298 18.9785 1.16298 18.8424V13.2553C1.16298 11.3502 2.33403 9.6293 4.11888 8.92491L22.5569 1.61688C24.1237 0.992534 25.8682 0.992534 27.435 1.61688L45.873 8.92491C47.6579 9.6373 48.8289 11.3502 48.8289 13.2553V18.098C48.8289 18.8984 48.1748 19.5468 47.3671 19.5468H45.5258C44.7262 19.5548 44.072 18.9064 44.072 18.098Z" stroke="#FADEB4" stroke-width="2.8834" stroke-miterlimit="10"/>
<path id="Vector_2" d="M25.004 33.7706C25.004 36.1639 25.9086 38.3491 27.3946 40.0061C25.6582 41.9511 23.1223 43.1758 20.2956 43.1758H10.701V14.8242H20.2875C23.1142 14.8242 25.6582 16.0488 27.3865 17.9939C25.9005 19.6508 24.996 21.836 24.996 24.2293V33.7706H25.004Z" stroke="#FADEB4" stroke-width="2.8834" stroke-miterlimit="10"/>
<path id="Vector_3" d="M29.769 24.2293V33.7786C29.769 36.1639 28.8726 38.3491 27.3865 40.0061C25.9005 38.3491 24.996 36.1639 24.996 33.7706V24.2454C24.996 21.852 25.9005 19.6668 27.3865 18.0099C28.8726 19.6588 29.769 21.836 29.769 24.2293Z" stroke="#FADEB4" stroke-width="2.8834" stroke-miterlimit="10"/>
</g>
</g>
<defs>
<clipPath id="clip0_1_212">
<rect width="50" height="58" fill="white"/>
</clipPath>
</defs>
</svg>
