<svg width="113" height="22" viewBox="0 0 113 22" fill="none" xmlns="http://www.w3.org/2000/svg">
<g id="Frame" clip-path="url(#clip0_1_219)">
<g id="Group">
<path id="Vector" d="M15.1202 13.4115C14.2601 13.1083 13.3573 12.9532 12.4118 12.9532C11.4024 12.9532 10.4427 13.1083 9.53277 13.4115C8.61575 13.7147 7.76982 14.1378 6.97364 14.6808C6.18457 15.2237 5.4737 15.8583 4.84814 16.5917C4.22257 17.325 3.6752 18.1218 3.19892 18.975C3.05674 19.2782 2.98566 19.6096 2.98566 19.9551C2.98566 20.3853 3.13494 20.7308 3.43351 21.0058C3.73207 21.2808 4.14438 21.4147 4.67753 21.4147V21.6263H0V21.4147C0.263022 21.4147 0.54737 21.3301 0.845936 21.1679C1.1445 21.0058 1.42885 20.7942 1.70609 20.5404C1.98333 20.2865 2.23213 20.0115 2.45961 19.7154C2.68709 19.4192 2.8577 19.1372 2.98566 18.8763L10.3503 2.63013L9.3053 0.246796H11.772L20.274 19.3417C20.5584 19.9763 20.9778 20.4769 21.5181 20.8506C22.0583 21.2244 22.6341 21.4147 23.2241 21.4147H23.2526V21.6263H16.3856V21.4147H16.5064C16.9756 21.4147 17.331 21.309 17.5656 21.0974C17.8002 20.8859 17.921 20.5968 17.921 20.2301C17.921 19.9481 17.8357 19.5885 17.6722 19.1583L15.1202 13.4115ZM10.4711 2.90513L3.85292 17.4731C4.85525 16.0699 6.09927 14.9276 7.56366 14.0532C9.02806 13.1788 10.6488 12.7417 12.4118 12.7417C12.8454 12.7417 13.2791 12.7699 13.7198 12.8333C14.1605 12.8968 14.5871 12.9955 14.9994 13.1365L10.4711 2.90513Z" fill="#FADEB4"/>
<path id="Vector_2" d="M32.1811 0.458334C31.5271 0.458334 30.9869 0.662821 30.5817 1.0718C30.1693 1.48077 29.9632 2.00962 29.9632 2.65833V10.0833L36.2117 3.5468C36.5601 3.20128 36.8302 2.83462 37.0293 2.4468C37.2212 2.05898 37.3207 1.71346 37.3207 1.41026C37.3207 1.12821 37.2283 0.895514 37.0435 0.726283C36.8586 0.557052 36.553 0.465385 36.1193 0.465385H35.7781V0.253847H42.6736V0.465385H42.4603C42.0053 0.465385 41.5006 0.564103 40.939 0.754488C40.3775 0.944873 39.8159 1.19872 39.2614 1.50192C38.7069 1.80513 38.1809 2.14359 37.6904 2.51026C37.1999 2.87692 36.7947 3.23654 36.489 3.58205L30.7949 9.5968C31.5982 9.35 32.3233 9.23013 32.9844 9.23013C34.136 9.23013 35.1241 9.52628 35.9558 10.1186C36.7876 10.7109 37.5055 11.4442 38.1098 12.3186C38.714 13.1929 39.2472 14.1519 39.695 15.1885C40.1429 16.225 40.5623 17.184 40.939 18.0583C41.3158 18.9327 41.6926 19.666 42.0622 20.2583C42.4319 20.8506 42.8442 21.1468 43.292 21.1468C43.946 21.1468 44.5645 20.7378 45.1403 19.9269L45.2611 20.0186C44.8915 20.6109 44.4365 21.0551 43.9034 21.3654C43.3702 21.6686 42.8371 21.8237 42.3039 21.8237C41.4651 21.8237 40.7684 21.5205 40.2282 20.9212C39.6808 20.3218 39.1974 19.5744 38.7638 18.6788C38.3301 17.7833 37.9249 16.8173 37.534 15.7737C37.143 14.7372 36.6951 13.7712 36.1975 12.8686C35.6928 11.9731 35.0815 11.2256 34.3635 10.6263C33.6455 10.0269 32.7498 9.72372 31.6835 9.72372C31.3565 9.72372 30.9868 9.75192 30.5745 9.81538L29.9561 10.4853V19.2218C29.9561 19.8705 30.1622 20.4064 30.5745 20.8083C30.9868 21.2173 31.52 21.4218 32.174 21.4218H32.238V21.6333H25.3425V21.4218H25.4065C26.0605 21.4218 26.5937 21.2173 27.006 20.8083C27.4183 20.3994 27.6244 19.8705 27.6244 19.2218V2.65833C27.6244 2.00962 27.4183 1.48077 27.006 1.0718C26.5937 0.662821 26.0605 0.458334 25.4065 0.458334H25.3425V0.246796H32.238V0.458334H32.1811Z" fill="#FADEB4"/>
<path id="Vector_3" d="M47.2729 5.46474C47.2729 4.52692 47.4648 3.71603 47.8558 3.01795C48.2468 2.32692 48.7657 1.75577 49.4126 1.30449C50.0595 0.860256 50.7988 0.528846 51.6305 0.310256C52.4623 0.105769 53.3082 0 54.1755 0C55.0783 0 55.9597 0.112821 56.827 0.338462C57.6872 0.564103 58.462 0.888462 59.1373 1.31859C59.8127 1.74872 60.3671 2.27756 60.7865 2.91923C61.206 3.5609 61.4192 4.30128 61.4192 5.13333C61.4192 5.84551 61.2415 6.36731 60.8932 6.70577C60.5449 7.04423 60.161 7.20641 59.7558 7.20641C59.4075 7.20641 59.1018 7.08654 58.8317 6.85385C58.5615 6.62115 58.4336 6.27564 58.4336 5.83141C58.4336 5.44359 58.5118 5.14744 58.661 4.92885C58.8174 4.71731 58.9809 4.54103 59.1658 4.40705C59.3506 4.27308 59.5212 4.1532 59.6705 4.04038C59.8269 3.92756 59.898 3.77244 59.898 3.56795C59.898 3.06026 59.7274 2.60192 59.3932 2.19295C59.052 1.78397 58.6113 1.43141 58.071 1.14231C57.5237 0.846154 56.9052 0.620513 56.2085 0.472436C55.5119 0.317308 54.801 0.246795 54.083 0.246795C53.3864 0.246795 52.6968 0.324359 52.0215 0.472436C51.3462 0.627564 50.7419 0.867308 50.223 1.20577C49.697 1.54423 49.2776 1.97436 48.9577 2.50321C48.6378 3.03205 48.4814 3.66667 48.4814 4.4C48.4814 5.13333 48.6804 5.76795 49.0785 6.29679C49.4766 6.82564 50.0026 7.29808 50.6495 7.7141C51.2964 8.13013 52.0286 8.50385 52.8532 8.82821C53.6778 9.15256 54.5238 9.48397 55.391 9.82244C56.2654 10.1609 57.1113 10.5135 57.9288 10.8942C58.7463 11.2679 59.4857 11.7122 60.1325 12.2058C60.7794 12.7064 61.3055 13.2846 61.7036 13.9474C62.1017 14.6103 62.3007 15.4 62.3007 16.3167C62.3007 17.2756 62.0874 18.1006 61.6538 18.8058C61.2202 19.5109 60.6515 20.0891 59.9477 20.5474C59.2369 21.0058 58.4336 21.3442 57.5308 21.5558C56.628 21.7673 55.7109 21.8731 54.7868 21.8731C53.6778 21.8731 52.7111 21.732 51.8793 21.4429C51.0476 21.1538 50.3368 20.8506 49.7396 20.5122C49.1425 20.1737 48.6591 19.8635 48.2752 19.5814C47.8985 19.2994 47.6141 19.1513 47.4293 19.1513C47.2445 19.1513 47.0881 19.25 46.953 19.4404C46.8179 19.6308 46.7042 19.8635 46.6118 20.1244C46.5194 20.3923 46.4483 20.6603 46.3985 20.9353C46.3488 21.2103 46.3203 21.4359 46.3203 21.6192L46.1355 21.591L47.1521 14.4128L47.3369 14.3846C47.4151 15.7103 47.6852 16.8314 48.1402 17.7622C48.588 18.6859 49.1496 19.4404 49.8178 20.0045C50.486 20.5756 51.2324 20.9846 52.0499 21.2385C52.8674 21.4923 53.6921 21.6192 54.5167 21.6192C55.3342 21.6192 56.1303 21.5135 56.891 21.3019C57.6516 21.0904 58.3269 20.7801 58.9241 20.3853C59.5212 19.9904 59.9975 19.5179 60.3529 18.9821C60.7084 18.4462 60.8932 17.8397 60.8932 17.1628C60.8932 16.2038 60.5591 15.4212 59.8909 14.8077C59.2226 14.1942 58.3838 13.6583 57.3673 13.1859C56.3507 12.7205 55.256 12.2833 54.0901 11.8744C52.9172 11.4654 51.8296 10.9859 50.813 10.4359C49.7965 9.8859 48.9577 9.21603 48.2894 8.43333C47.607 7.66474 47.2729 6.67051 47.2729 5.46474Z" fill="#FADEB4"/>
<path id="Vector_4" d="M71.2008 0.458332C70.5468 0.458332 70.0136 0.655768 69.6156 1.05064C69.2175 1.44551 69.0184 1.97436 69.0184 2.62308V12.9462C70.0065 11.8462 71.151 11.0423 72.4662 10.5346C73.7813 10.0269 75.2457 9.77308 76.8735 9.77308C77.5915 9.77308 78.3451 9.86474 79.1341 10.0481C79.9232 10.2314 80.6412 10.5487 81.2738 10.9929V2.63013C81.2738 1.98141 81.0748 1.45256 80.6767 1.05769C80.2786 0.66282 79.7455 0.465384 79.0915 0.465384H78.9991V0.253845H85.8661V0.465384H85.8021C85.1481 0.465384 84.6149 0.66282 84.2168 1.05769C83.8188 1.45256 83.6197 1.98141 83.6197 2.63013V19.25C83.6197 19.8987 83.8188 20.4276 84.2168 20.8224C84.6149 21.2173 85.1481 21.4147 85.8021 21.4147H85.8661V21.6263H78.9991V21.4147H79.0915C79.7455 21.4147 80.2786 21.2173 80.6767 20.8224C81.0748 20.4276 81.2738 19.8987 81.2738 19.25V11.275C80.6554 10.8096 79.9516 10.4782 79.1483 10.2808C78.345 10.0904 77.5844 9.99167 76.8664 9.99167C75.2243 9.99167 73.7457 10.2596 72.4306 10.7885C71.1155 11.3173 69.9781 12.1564 69.0113 13.2917V19.25C69.0113 19.8987 69.2104 20.4276 69.6085 20.8224C70.0065 21.2173 70.5397 21.4147 71.1937 21.4147H71.2577V21.6263H64.3907V21.4147H64.4831C65.1371 21.4147 65.6702 21.2173 66.0683 20.8224C66.4664 20.4276 66.6654 19.8987 66.6654 19.25V2.63013C66.6654 1.98141 66.4664 1.45256 66.0683 1.05769C65.6702 0.66282 65.1371 0.465384 64.4831 0.465384H64.3907V0.253845H71.2577V0.465384H71.2008V0.458332Z" fill="#FADEB4"/>
<path id="Vector_5" d="M92.1431 19.1865C92.1431 19.8564 92.3492 20.3994 92.7615 20.8083C93.1738 21.2173 93.7141 21.4218 94.3965 21.4218H94.425V21.6333H87.5295V21.4218H87.5579C88.2333 21.4218 88.7806 21.2173 89.1929 20.8083C89.6052 20.3994 89.8114 19.8635 89.8114 19.1865V2.68654C89.8114 2.01667 89.6052 1.47372 89.1929 1.06475C88.7806 0.655772 88.2404 0.451285 87.5579 0.451285H87.5295V0.239746H94.9226C96.195 0.239746 97.3111 0.401926 98.2779 0.726284C99.2447 1.05064 100.041 1.48782 100.681 2.02372C101.313 2.56667 101.797 3.18013 102.109 3.87116C102.429 4.56218 102.586 5.27436 102.586 6.00769C102.586 6.64231 102.465 7.26282 102.216 7.86923C101.967 8.48269 101.598 9.03975 101.107 9.54744C100.617 10.0551 99.9911 10.4923 99.2447 10.859C98.4982 11.2256 97.6168 11.4795 96.6144 11.6205C97.7447 11.7051 98.6617 11.9942 99.3726 12.509C100.083 13.0167 100.659 13.6231 101.114 14.3282C101.562 15.0333 101.925 15.7808 102.195 16.5705C102.465 17.3673 102.707 18.1006 102.934 18.7705C103.162 19.4404 103.403 20.0045 103.659 20.4487C103.915 20.9 104.271 21.1186 104.718 21.1186C105.372 21.1186 105.991 20.7096 106.567 19.8987L106.687 19.9904C106.318 20.5827 105.863 21.0269 105.33 21.3372C104.797 21.6404 104.263 21.7955 103.73 21.7955C103.055 21.7955 102.508 21.6545 102.095 21.3654C101.683 21.0833 101.342 20.6955 101.064 20.2231C100.787 19.7436 100.56 19.2077 100.389 18.6013C100.211 18.0019 100.027 17.3885 99.8347 16.768C99.6427 16.1474 99.4082 15.534 99.1451 14.9346C98.875 14.3353 98.5267 13.7923 98.1002 13.3128C97.6665 12.8333 97.1263 12.4526 96.4651 12.1705C95.8111 11.8885 94.9865 11.7404 93.9984 11.7404H92.1502V19.1865H92.1431ZM92.1431 11.55H95.1287C95.9889 11.55 96.7424 11.3878 97.3893 11.0635C98.0362 10.7391 98.5764 10.316 99.003 9.79423C99.4366 9.27244 99.7565 8.67308 99.9697 7.9891C100.183 7.30513 100.29 6.62116 100.29 5.93013C100.29 5.2391 100.183 4.56923 99.9697 3.91346C99.7565 3.26475 99.4295 2.67949 99.003 2.1718C98.5693 1.6641 98.0362 1.24808 97.3893 0.937823C96.7424 0.620515 95.9889 0.465387 95.1287 0.465387H92.1431V11.55Z" fill="#FADEB4"/>
<path id="Vector_6" d="M102.778 12.3821C103.432 12.6641 103.979 13.0519 104.413 13.5244C104.846 14.0039 105.195 14.5398 105.458 15.1462C105.721 15.7455 105.955 16.359 106.147 16.9795C106.339 17.6 106.524 18.2135 106.702 18.8128C106.872 19.4122 107.1 19.9551 107.377 20.4346C107.654 20.9141 107.995 21.2949 108.408 21.5769C108.82 21.859 109.36 22.0071 110.043 22.0071C110.576 22.0071 111.109 21.8519 111.642 21.5487C112.175 21.2455 112.63 20.7942 113 20.2019L112.879 20.1103C112.303 20.9282 111.685 21.3301 111.031 21.3301C110.576 21.3301 110.228 21.1045 109.972 20.6603C109.716 20.216 109.474 19.6519 109.247 18.9821C109.019 18.3122 108.777 17.5789 108.507 16.7821C108.237 15.9853 107.882 15.2378 107.427 14.5398C106.972 13.8346 106.396 13.2282 105.685 12.7205C104.974 12.2128 104.057 11.9167 102.927 11.8321C103.929 11.691 104.811 11.4372 105.557 11.0705C106.304 10.7039 106.929 10.2667 107.42 9.75899C107.91 9.25129 108.28 8.68719 108.529 8.08078C108.777 7.46732 108.898 6.84681 108.898 6.21924C108.898 5.48591 108.742 4.77373 108.422 4.0827C108.102 3.39168 107.626 2.77116 106.993 2.23527C106.353 1.69937 105.557 1.26219 104.59 0.937831C103.624 0.613472 102.508 0.451293 101.235 0.451293L96.2234 0.331421C96.2448 0.401934 96.2732 0.472447 96.2945 0.542959L101.455 0.662831C102.316 0.662831 103.069 0.817959 103.716 1.13527C104.363 1.45257 104.903 1.86155 105.33 2.36924C105.763 2.87693 106.083 3.46219 106.296 4.11091C106.51 4.75963 106.616 5.43655 106.616 6.12757C106.616 6.8186 106.51 7.50963 106.296 8.18655C106.083 8.87052 105.756 9.46988 105.33 9.99168C104.896 10.5135 104.363 10.9366 103.716 11.2609C103.069 11.5853 102.316 11.7474 101.455 11.7474" fill="#FADEB4"/>
<path id="Vector_7" d="M60.1254 14.5891C60.1254 15.259 59.9762 15.8372 59.6776 16.3237C59.379 16.8103 58.9809 17.2192 58.4833 17.5365C57.9928 17.8538 57.4312 18.0936 56.7986 18.2417C56.1659 18.3897 55.5332 18.4673 54.8863 18.4673C54.1115 18.4673 53.4361 18.3686 52.8603 18.1712C52.2774 17.9737 51.7798 17.7551 51.3675 17.5224C50.9552 17.2897 50.614 17.0712 50.351 16.8737C50.0879 16.6763 49.8889 16.5776 49.7609 16.5776C49.633 16.5776 49.5192 16.6481 49.4268 16.782C49.3344 16.916 49.2562 17.0782 49.1922 17.2615C49.1283 17.4449 49.0785 17.6353 49.043 17.8256C49.0074 18.016 48.9861 18.1782 48.9861 18.3051L48.8581 18.284L49.569 13.2776L49.697 13.2564C49.7538 14.1801 49.9387 14.9628 50.2586 15.6115C50.5713 16.2603 50.9623 16.7821 51.4315 17.1769C51.8936 17.5718 52.4125 17.8609 52.9883 18.0372C53.557 18.2135 54.1328 18.3051 54.7086 18.3051C55.2773 18.3051 55.8318 18.2276 56.3649 18.0795C56.891 17.9314 57.3673 17.7199 57.7796 17.4378C58.1919 17.1628 58.526 16.8314 58.7748 16.4577C59.0236 16.084 59.1515 15.6609 59.1515 15.1885C59.1515 14.5186 58.917 13.9756 58.4549 13.5526" fill="#FADEB4"/>
<path id="Vector_8" d="M48.2255 8.05255C47.7279 7.47434 47.4862 6.74101 47.4862 5.85255C47.4862 5.16152 47.6283 4.55511 47.9198 4.04742C48.2112 3.53268 48.588 3.11665 49.0714 2.78524C49.5477 2.45383 50.0951 2.20704 50.7135 2.05191C51.3249 1.89678 51.9575 1.81216 52.5902 1.81216C53.2584 1.81216 53.9124 1.89678 54.5451 2.05896C55.1849 2.22819 55.7536 2.46793 56.2512 2.78524C56.7488 3.10255 57.1611 3.49742 57.4668 3.96986C57.7796 4.44229 57.936 4.99229 57.936 5.60575C57.936 6.1346 57.808 6.52242 57.5521 6.76922C57.2962 7.01601 57.0118 7.14293 56.7061 7.14293C56.4502 7.14293 56.2228 7.05832 56.0237 6.88204C55.8247 6.70575 55.7251 6.45896 55.7251 6.12755C55.7251 5.83845 55.782 5.61986 55.8958 5.46473C56.0095 5.3096 56.1375 5.17563 56.2725 5.08396C56.4076 4.98524 56.5355 4.89357 56.6493 4.81601C56.763 4.7314 56.8199 4.61857 56.8199 4.46345C56.8199 4.08973 56.6919 3.75127 56.4431 3.44806C56.1943 3.14486 55.8673 2.88396 55.4621 2.66537C55.0569 2.44678 54.602 2.2846 54.083 2.17178C53.5641 2.05896 53.0452 2.00255 52.512 2.00255C51.9931 2.00255 51.4884 2.05896 50.9836 2.17178C50.486 2.2846 50.0382 2.46793 49.6543 2.71473C49.2704 2.96152 48.9577 3.28588 48.7231 3.6737C48.4885 4.06857 48.3676 4.53396 48.3676 5.07691C48.3676 5.61986 48.5169 6.08524 48.8084 6.48011C49.1069 6.87498 49.4908 7.2205 49.9671 7.53075" fill="#FADEB4"/>
</g>
</g>
<defs>
<clipPath id="clip0_1_219">
<rect width="113" height="22" fill="white"/>
</clipPath>
</defs>
</svg>
